HIERARCHY
ROOT Hips
{
 OFFSET 0.000000 0.000000 0.000000
 CHANNELS 6 Xposition Yposition Zposition Yrotation Xrotation Zrotation
 JOINT Chest
 {
  OFFSET 0.000000 9.588913 -0.003946
  CHANNELS 3 Yrotation Xrotation Zrotation
  JOINT Chest2
  {
   OFFSET 0.000000 9.541882 0.008053
   CHANNELS 3 Yrotation Xrotation Zrotation
   JOINT Chest3
   {
    OFFSET 0.000000 9.501360 0.000000
    CHANNELS 3 Yrotation Xrotation Zrotation
    JOINT Chest4
    {
     OFFSET 0.000000 9.491660 0.000000
     CHANNELS 3 Yrotation Xrotation Zrotation
     JOINT Neck
     {
      OFFSET 0.000000 14.331917 0.000000
      CHANNELS 3 Yrotation Xrotation Zrotation
      JOINT Head
      {
       OFFSET 0.000000 8.884799 0.017034
       CHANNELS 3 Yrotation Xrotation Zrotation
       End Site
       {
        OFFSET 0.000000 16.896195 0.008993
       }
      }
     }
     JOINT RightCollar
     {
      OFFSET -2.923010 9.499495 0.000000
      CHANNELS 3 Yrotation Xrotation Zrotation
      JOINT RightShoulder
      {
       OFFSET -13.795216 0.000000 0.000000
       CHANNELS 3 Yrotation Xrotation Zrotation
       JOINT RightElbow
       {
        OFFSET -30.272209 0.000000 0.000000
        CHANNELS 3 Yrotation Xrotation Zrotation
        JOINT RightWrist
        {
         OFFSET -24.478199 0.000000 0.000000
         CHANNELS 3 Yrotation Xrotation Zrotation
         End Site
         {
          OFFSET -18.090752 0.000000 0.000000
         }
        }
       }
      }
     }
     JOINT LeftCollar
     {
      OFFSET 2.923010 9.499495 0.000000
      CHANNELS 3 Yrotation Xrotation Zrotation
      JOINT LeftShoulder
      {
       OFFSET 13.795216 0.000000 0.000000
       CHANNELS 3 Yrotation Xrotation Zrotation
       JOINT LeftElbow
       {
        OFFSET 30.272209 0.000000 0.000000
        CHANNELS 3 Yrotation Xrotation Zrotation
        JOINT LeftWrist
        {
         OFFSET 24.478199 0.000000 0.000000
         CHANNELS 3 Yrotation Xrotation Zrotation
         End Site
         {
          OFFSET 18.090752 0.000000 0.000000
         }
        }
       }
      }
     }
    }
   }
  }
 }
 JOINT RightHip
 {
  OFFSET -7.826875 0.019532 0.001973
  CHANNELS 3 Yrotation Xrotation Zrotation
  JOINT RightKnee
  {
   OFFSET 0.000000 -40.546152 -0.001885
   CHANNELS 3 Yrotation Xrotation Zrotation
   JOINT RightAnkle
   {
    OFFSET 0.000000 -39.417092 -0.003189
    CHANNELS 3 Yrotation Xrotation Zrotation
    JOINT RightToe
    {
     OFFSET 0.000000 -7.579396 17.243563
     CHANNELS 3 Yrotation Xrotation Zrotation
     End Site
     {
      OFFSET 0.000000 -1.500329 6.694466
     }
    }
   }
  }
 }
 JOINT LeftHip
 {
  OFFSET 7.826875 0.019532 0.001973
  CHANNELS 3 Yrotation Xrotation Zrotation
  JOINT LeftKnee
  {
   OFFSET 0.000000 -40.546152 -0.001885
   CHANNELS 3 Yrotation Xrotation Zrotation
   JOINT LeftAnkle
   {
    OFFSET 0.000000 -39.417092 -0.003189
    CHANNELS 3 Yrotation Xrotation Zrotation
    JOINT LeftToe
    {
     OFFSET 0.000000 -7.579396 17.243563
     CHANNELS 3 Yrotation Xrotation Zrotation
     End Site
     {
      OFFSET 0.000000 -1.500329 6.694466
     }
    }
   }
  }
 }
}
MOTION
Frames: 7
Frame Time: 0.008333
0.000000 87.345680 0.000000 0.000000 -5.767889 0.000000 0.000000 11.653876 0.000000 0.000000 -5.885988 0.000000 0.000000 -0.000000 0.000000 0.000000 -0.000000 0.000000 0.000000 12.528808 0.000000 0.000000 0.711711 0.000000 0.000000 -0.000000 0.000000 0.000000 -0.000000 0.000000 2.309063 -0.000000 0.000000 -2.309063 -0.000000 -0.000000 0.000000 -0.000000 0.000000 0.000000 0.000000 0.000000 -2.309063 0.000000 0.000000 2.309063 -0.000000 0.000000 0.000000 8.520374 0.000000 0.000000 1.905768 0.000000 -0.000000 -4.658254 0.000000 0.000000 -0.000000 0.000000 0.000000 8.520374 0.000000 0.000000 1.905768 0.000000 -0.000000 -4.658254 0.000000 0.000000 -0.000000 0.000000
12.206047 89.250585 19.003583 39.938415 -7.724377 -0.217217 -2.876608 3.480477 -0.927283 -1.638337 1.979536 -0.505763 -2.050954 2.472091 -0.641134 -1.638337 1.979536 -0.505763 9.111825 16.943130 -2.766531 17.764872 -3.397190 -8.157267 6.160949 2.151747 -2.737526 5.548968 -7.104982 87.748773 4.228057 5.748359 1.997415 -2.709984 -5.577907 1.096868 10.136204 0.094898 2.321968 -0.279404 -3.408066 -89.534158 -2.982116 11.620898 -0.137637 1.567125 -3.648200 -2.782491 -14.828065 9.505767 -3.296180 -7.783481 4.392785 0.358655 -21.968634 -4.240967 3.171183 -0.023861 0.002706 -0.005188 -19.319851 10.209761 -4.579336 -21.771931 3.671052 1.160090 -13.970374 -4.076532 2.548927 0.012595 0.102528 -0.010364
12.222712 89.249619 18.945273 39.907164 -7.749830 -0.219631 -2.887419 3.494845 -0.927168 -1.644340 1.990487 -0.500414 -2.058448 2.485795 -0.634529 -1.644340 1.990488 -0.500414 9.108061 16.937853 -2.764744 17.758036 -3.407779 -8.153625 6.169965 2.143219 -2.761877 5.577583 -7.160988 87.651771 4.230689 5.734502 1.999555 -2.703027 -5.584557 1.082705 10.121329 0.081630 2.297591 -0.375611 -3.527898 -89.466051 -2.936680 11.617850 -0.117998 1.564880 -3.646144 -2.778201 -14.827165 9.418177 -3.321818 -7.750898 4.541616 0.322482 -21.967688 -4.261870 3.216429 -0.026110 0.002568 -0.001494 -19.339308 10.207061 -4.607950 -21.754485 3.655811 1.145825 -13.939516 -4.037875 2.564391 0.013345 0.104445 -0.013203
12.242002 89.248330 18.876657 39.882884 -7.776356 -0.221681 -2.899537 3.511165 -0.926571 -1.651888 2.001726 -0.495422 -2.067877 2.499855 -0.628382 -1.651888 2.001726 -0.495422 9.104262 16.932200 -2.762617 17.751071 -3.419126 -8.149408 6.174057 2.133633 -2.783720 5.594460 -7.220039 87.554658 4.230735 5.730575 2.001380 -2.695080 -5.591311 1.065808 10.101612 0.066854 2.273685 -0.458219 -3.648989 -89.397970 -2.898193 11.619986 -0.104475 1.554875 -3.648068 -2.770643 -14.829536 9.320598 -3.352322 -7.721158 4.703869 0.277793 -21.952333 -4.283234 3.270065 -0.025677 0.002458 0.002614 -19.358513 10.206311 -4.637524 -21.740732 3.623894 1.134674 -13.921083 -3.986708 2.575804 0.011865 0.108733 -0.016436
12.263151 89.246713 18.800368 39.863306 -7.804018 -0.223421 -2.913120 3.528579 -0.925698 -1.660524 2.013081 -0.490574 -2.078666 2.514057 -0.622420 -1.660524 2.013081 -0.490574 9.101266 16.926614 -2.760317 17.745518 -3.430259 -8.145118 6.174884 2.125443 -2.800746 5.597163 -7.281347 87.454925 4.229791 5.741764 2.003738 -2.687924 -5.601563 1.050448 10.077096 0.051515 2.250109 -0.525031 -3.766961 -89.331019 -2.874354 11.622411 -0.099703 1.545112 -3.651239 -2.762247 -14.832355 9.213202 -3.383316 -7.693380 4.879105 0.224955 -21.939351 -4.306561 3.330211 -0.024300 0.002788 0.006592 -19.376433 10.209404 -4.668809 -21.733398 3.577038 1.128400 -13.904791 -3.926205 2.580827 0.009855 0.114924 -0.018403
12.285113 89.244777 18.719373 39.844459 -7.833525 -0.227278 -2.928248 3.546796 -0.923879 -1.670264 2.024228 -0.485387 -2.090833 2.528001 -0.616041 -1.670264 2.024228 -0.485387 9.100501 16.921530 -2.758229 17.744077 -3.440094 -8.141849 6.176692 2.123043 -2.810621 5.588267 -7.346943 87.350876 4.228940 5.772581 2.005375 -2.683228 -5.617862 1.037160 10.054950 0.036776 2.227292 -0.579230 -3.880281 -89.266539 -2.864595 11.620079 -0.103019 1.536750 -3.653742 -2.755787 -14.831988 9.098304 -3.411213 -7.666278 5.067453 0.166546 -21.933485 -4.332996 3.395089 -0.022698 0.002437 0.010045 -19.390805 10.215874 -4.699193 -21.729493 3.523326 1.126772 -13.892769 -3.863118 2.580255 0.007356 0.123095 -0.019336
12.306859 89.242479 18.635667 39.826881 -7.862870 -0.234923 -2.945602 3.564527 -0.919647 -1.681363 2.035090 -0.479596 -2.104694 2.541590 -0.608914 -1.681363 2.035091 -0.479597 9.101226 16.916993 -2.756739 17.745507 -3.448596 -8.140064 6.181960 2.125853 -2.815160 5.570601 -7.417923 87.239865 4.228069 5.823750 2.006992 -2.682663 -5.635924 1.027052 10.038336 0.023224 2.204750 -0.619148 -3.991223 -89.205421 -2.865056 11.620258 -0.114376 1.527983 -3.656974 -2.754701 -14.831490 8.977741 -3.438051 -7.636500 5.266277 0.109493 -21.926799 -4.362390 3.461215 -0.020156 -0.000165 0.013465 -19.404480 10.224974 -4.728989 -21.723061 3.467181 1.128408 -13.870307 -3.801271 2.577883 0.005958 0.132552 -0.019622
